<svg width="301" height="298" viewBox="0 0 301 298" fill="none" xmlns="http://www.w3.org/2000/svg">
<g opacity="0.08" clip-path="url(#clip0_257_892)">
<path d="M108.978 172.671L109.99 173.534C112.522 178.504 111.716 205.867 111.716 213.388C64.4343 238.2 8.48788 271.696 -37.7435 299.397C-42.5449 293.902 -40.6508 266.764 -40.5383 257.443C6.87473 233.905 61.5649 199.003 108.978 172.671Z" fill="#8B8B8B"/>
<path d="M298.823 41.541C301.805 46.7361 300.623 73.8932 300.548 81.6764L151.688 169.599C148.444 161.122 150.094 137.828 150.413 127.457C196.532 98.8745 251.316 68.9419 298.823 41.541Z" fill="#8B8B8B"/>
<path d="M-40.5954 39.2168C-5.59826 57.7278 32.0621 84.0408 67.4905 103.34C80.7504 110.579 97.6674 122.02 111.64 126.708L111.452 170.988C61.9577 139.743 10.2685 111.367 -39.789 80.7213C-41.477 71.1376 -40.6891 49.9071 -40.5954 39.2168Z" fill="#8B8B8B"/>
<path d="M150.387 172.094C200.219 198.595 251.027 232.26 300.859 257.748C301.103 272.039 301.028 286.349 300.653 300.64C256.972 278.266 192.642 232.297 150.387 213.805C150.237 199.964 150.387 185.935 150.387 172.094Z" fill="#8B8B8B"/>
<path d="M112.21 0L149.889 0.0375463C149.158 41.9171 148.877 83.7967 149.045 125.695C139.818 125.77 119.881 125.489 111.647 126.708C112.66 84.5282 111.366 42.0484 112.21 0Z" fill="#8B8B8B"/>
<path d="M113.098 213.991L149.296 213.935L148.902 341.505L112.93 341.187C112.686 298.782 112.742 256.396 113.098 213.991Z" fill="#8B8B8B"/>
</g>
<defs>
<clipPath id="clip0_257_892">
<rect width="301" height="298" fill="white"/>
</clipPath>
</defs>
</svg>
