<svg width="60" height="60" viewBox="0 0 60 60" fill="none" xmlns="http://www.w3.org/2000/svg">
<rect x="0.75" y="0.75" width="58.5" height="58.5" stroke="#1134D1" stroke-width="1.5"/>
<path d="M40 31.0415C35.8905 31.0067 31.7808 31.0005 27.6711 31.0229C25.7601 31.0165 23.618 31.0556 21.7391 30.9474L21.741 28.8759C27.8178 28.8011 33.8952 28.7919 39.9722 28.848L40 31.0415Z" fill="#1134D1"/>
<path d="M19.859 29.8569C19.6936 29.6083 19.7525 27.8404 19.7552 27.4121C22.9008 25.5622 26.5643 23.3099 29.784 21.6666C29.9898 21.8863 29.8929 23.6702 29.886 24.104C26.8652 25.6826 22.7246 28.0427 19.859 29.8569Z" fill="#1134D1"/>
<path d="M29.9247 38.3335C28.889 37.8263 27.3441 36.8655 26.3146 36.269L19.7189 32.4562L19.7678 30.0211C20.1792 30.1813 20.7407 30.5754 21.1396 30.8131C24.0486 32.5457 27.0332 34.1891 29.9216 35.9525L29.9247 38.3335Z" fill="#1134D1"/>
</svg>
