<svg width="550" height="459" viewBox="0 0 550 459" fill="none" xmlns="http://www.w3.org/2000/svg">
<g opacity="0.08" clip-path="url(#clip0_257_816)">
<mask id="mask0_257_816" style="mask-type:alpha" maskUnits="userSpaceOnUse" x="164" y="0" width="224" height="216">
<rect width="223.47" height="215.5" transform="matrix(-1 0 0 1 387.5 0)" fill="#8B8B8B"/>
</mask>
<g mask="url(#mask0_257_816)">
<path d="M225.03 108.634V52.6171H143.339C123.889 52.6171 107.162 50.8666 93.1578 47.3656C79.1537 43.8645 68.4561 37.8349 61.065 29.2769C53.2849 20.3298 49.3949 7.68717 49.3949 -8.65098C49.3949 -23.8221 53.0904 -35.8813 60.4815 -44.8283C67.8726 -53.7754 78.5702 -59.9995 92.5743 -63.5005C106.578 -67.3906 123.111 -69.3356 142.172 -69.3356H225.03V-125.352H163.178C143.728 -125.352 127.196 -126.908 113.581 -130.02C99.5764 -133.521 89.0733 -139.551 82.0712 -148.109C74.6801 -156.667 70.9846 -168.726 70.9846 -184.286C70.9846 -199.846 74.4856 -211.905 81.4877 -220.464C88.1008 -229.022 98.4094 -235.051 112.414 -238.552C126.418 -242.053 143.728 -243.804 164.345 -243.804H256.539V-299.82H164.345C134.781 -299.82 107.94 -296.319 83.8217 -289.317C59.3145 -282.704 39.8643 -270.84 25.4712 -253.723C11.078 -236.996 3.88146 -213.461 3.88146 -183.119C3.88146 -169.504 7.18799 -155.889 13.8011 -142.274C20.0251 -128.659 29.3612 -117.183 41.8093 -107.847C54.2575 -98.5108 70.2066 -93.4538 89.6568 -92.6758V-107.263C70.5956 -106.874 53.0904 -102.595 37.1413 -94.4263C20.8031 -86.2573 7.77151 -74.7816 -1.95359 -59.9995C-12.0677 -45.6063 -17.1248 -28.4902 -17.1248 -8.65098C-17.1248 21.6913 -9.92818 45.4205 4.46495 62.5367C18.8581 79.6528 38.3083 91.712 62.8155 98.7141C86.9337 105.327 113.775 108.634 143.339 108.634H225.03ZM288.632 70.1223V-299.82H225.03V70.1223H288.632Z" fill="#8B8B8B"/>
<path d="M328.283 108.634V52.6171H409.973C429.424 52.6171 446.151 50.8666 460.155 47.3656C474.159 43.8645 484.857 37.8349 492.248 29.2769C500.028 20.3298 503.918 7.68717 503.918 -8.65098C503.918 -23.8221 500.222 -35.8813 492.831 -44.8283C485.44 -53.7754 474.743 -59.9995 460.738 -63.5005C446.734 -67.3906 430.202 -69.3356 411.14 -69.3356H328.283V-125.352H390.134C409.584 -125.352 426.117 -126.908 439.732 -130.02C453.736 -133.521 464.239 -139.551 471.242 -148.109C478.633 -156.667 482.328 -168.726 482.328 -184.286C482.328 -199.846 478.827 -211.905 471.825 -220.464C465.212 -229.022 454.903 -235.051 440.899 -238.552C426.895 -242.053 409.584 -243.804 388.967 -243.804H296.773V-299.82H388.967C418.532 -299.82 445.373 -296.319 469.491 -289.317C493.998 -282.704 513.448 -270.84 527.842 -253.723C542.235 -236.996 549.431 -213.461 549.431 -183.119C549.431 -169.504 546.125 -155.889 539.512 -142.274C533.288 -128.659 523.952 -117.183 511.503 -107.847C499.055 -98.5108 483.106 -93.4538 463.656 -92.6758V-107.263C482.717 -106.874 500.222 -102.595 516.171 -94.4263C532.51 -86.2573 545.541 -74.7816 555.266 -59.9995C565.38 -45.6063 570.438 -28.4902 570.438 -8.65098C570.438 21.6913 563.241 45.4205 548.848 62.5367C534.455 79.6528 515.004 91.712 490.497 98.7141C466.379 105.327 439.538 108.634 409.973 108.634H328.283ZM264.681 70.1223V-299.82H328.283V70.1223H264.681Z" fill="#8B8B8B"/>
<path d="M225.03 108.637V164.653H143.339C123.889 164.653 107.162 166.404 93.1578 169.905C79.1537 173.406 68.4561 179.435 61.065 187.993C53.2849 196.941 49.3949 209.583 49.3949 225.921C49.3949 241.093 53.0904 253.152 60.4815 262.099C67.8726 271.046 78.5702 277.27 92.5743 280.771C106.578 284.661 123.111 286.606 142.172 286.606H225.03V342.622H163.178C143.728 342.622 127.196 344.178 113.581 347.291C99.5764 350.792 89.0733 356.821 82.0712 365.379C74.6801 373.937 70.9846 385.996 70.9846 401.557C70.9846 417.117 74.4856 429.176 81.4877 437.734C88.1008 446.292 98.4094 452.322 112.414 455.823C126.418 459.324 143.728 461.074 164.345 461.074H256.539V517.091H164.345C134.781 517.091 107.94 513.59 83.8217 506.588C59.3145 499.974 39.8643 488.11 25.4712 470.994C11.078 454.267 3.88146 430.732 3.88146 400.39C3.88146 386.774 7.18799 373.159 13.8011 359.544C20.0251 345.929 29.3612 334.453 41.8093 325.117C54.2575 315.781 70.2066 310.724 89.6568 309.946V324.534C70.5956 324.145 53.0904 319.866 37.1413 311.697C20.8031 303.528 7.77151 292.052 -1.95359 277.27C-12.0677 262.877 -17.1248 245.761 -17.1248 225.921C-17.1248 195.579 -9.92818 171.85 4.46495 154.734C18.8581 137.617 38.3083 125.558 62.8155 118.556C86.9337 111.943 113.775 108.637 143.339 108.637H225.03ZM288.632 147.148V517.091H225.03V147.148H288.632Z" fill="#8B8B8B"/>
<path d="M328.283 108.637V164.653H409.973C429.424 164.653 446.151 166.404 460.155 169.905C474.159 173.406 484.857 179.435 492.248 187.993C500.028 196.941 503.918 209.583 503.918 225.921C503.918 241.093 500.222 253.152 492.831 262.099C485.44 271.046 474.743 277.27 460.738 280.771C446.734 284.661 430.202 286.606 411.14 286.606H328.283V342.622H390.134C409.584 342.622 426.117 344.178 439.732 347.291C453.736 350.792 464.239 356.821 471.242 365.379C478.633 373.937 482.328 385.996 482.328 401.557C482.328 417.117 478.827 429.176 471.825 437.734C465.212 446.292 454.903 452.322 440.899 455.823C426.895 459.324 409.584 461.074 388.967 461.074H296.773V517.091H388.967C418.532 517.091 445.373 513.59 469.491 506.588C493.998 499.974 513.448 488.11 527.842 470.994C542.235 454.267 549.431 430.732 549.431 400.39C549.431 386.774 546.125 373.159 539.512 359.544C533.288 345.929 523.952 334.453 511.503 325.117C499.055 315.781 483.106 310.724 463.656 309.946V324.534C482.717 324.145 500.222 319.866 516.171 311.697C532.51 303.528 545.541 292.052 555.266 277.27C565.38 262.877 570.438 245.761 570.438 225.921C570.438 195.579 563.241 171.85 548.848 154.734C534.455 137.617 515.004 125.558 490.497 118.556C466.379 111.943 439.538 108.637 409.973 108.637H328.283ZM264.681 147.148V517.091H328.283V147.148H264.681Z" fill="#8B8B8B"/>
</g>
<mask id="mask1_257_816" style="mask-type:alpha" maskUnits="userSpaceOnUse" x="164" y="329" width="224" height="216">
<rect x="387.5" y="544.703" width="223.47" height="215.5" transform="rotate(180 387.5 544.703)" fill="#8B8B8B"/>
</mask>
<g mask="url(#mask1_257_816)">
<path d="M225.03 436.066V492.082H143.339C123.889 492.082 107.162 493.833 93.1578 497.334C79.1537 500.835 68.4561 506.864 61.065 515.422C53.2849 524.369 49.3949 537.012 49.3949 553.35C49.3949 568.521 53.0904 580.58 60.4815 589.528C67.8726 598.475 78.5702 604.699 92.5743 608.2C106.578 612.09 123.111 614.035 142.172 614.035H225.03V670.051H163.178C143.728 670.051 127.196 671.607 113.581 674.719C99.5764 678.22 89.0733 684.25 82.0712 692.808C74.6801 701.366 70.9846 713.425 70.9846 728.985C70.9846 744.546 74.4856 756.605 81.4877 765.163C88.1008 773.721 98.4094 779.75 112.414 783.251C126.418 786.752 143.728 788.503 164.345 788.503H256.539V844.52H164.345C134.781 844.52 107.94 841.018 83.8217 834.016C59.3145 827.403 39.8643 815.539 25.4712 798.423C11.078 781.695 3.88146 758.161 3.88146 727.818C3.88146 714.203 7.18799 700.588 13.8011 686.973C20.0251 673.358 29.3612 661.882 41.8093 652.546C54.2575 643.21 70.2066 638.153 89.6568 637.375V651.963C70.5956 651.574 53.0904 647.295 37.1413 639.126C20.8031 630.956 7.77151 619.481 -1.95359 604.699C-12.0677 590.306 -17.1248 573.189 -17.1248 553.35C-17.1248 523.008 -9.92818 499.279 4.46495 482.163C18.8581 465.046 38.3083 452.987 62.8155 445.985C86.9337 439.372 113.775 436.066 143.339 436.066H225.03ZM288.632 474.577V844.52H225.03V474.577H288.632Z" fill="#8B8B8B"/>
<path d="M328.283 436.066V492.082H409.973C429.424 492.082 446.151 493.833 460.155 497.334C474.159 500.835 484.857 506.864 492.248 515.422C500.028 524.369 503.918 537.012 503.918 553.35C503.918 568.521 500.222 580.58 492.831 589.528C485.44 598.475 474.743 604.699 460.738 608.2C446.734 612.09 430.202 614.035 411.14 614.035H328.283V670.051H390.134C409.584 670.051 426.117 671.607 439.732 674.719C453.736 678.22 464.239 684.25 471.242 692.808C478.633 701.366 482.328 713.425 482.328 728.985C482.328 744.546 478.827 756.605 471.825 765.163C465.212 773.721 454.903 779.75 440.899 783.251C426.895 786.752 409.584 788.503 388.967 788.503H296.773V844.52H388.967C418.532 844.52 445.373 841.018 469.491 834.016C493.998 827.403 513.448 815.539 527.842 798.423C542.235 781.695 549.431 758.161 549.431 727.818C549.431 714.203 546.125 700.588 539.512 686.973C533.288 673.358 523.952 661.882 511.503 652.546C499.055 643.21 483.106 638.153 463.656 637.375V651.963C482.717 651.574 500.222 647.295 516.171 639.126C532.51 630.956 545.541 619.481 555.266 604.699C565.38 590.306 570.438 573.189 570.438 553.35C570.438 523.008 563.241 499.279 548.848 482.163C534.455 465.046 515.004 452.987 490.497 445.985C466.379 439.372 439.538 436.066 409.973 436.066H328.283ZM264.681 474.577V844.52H328.283V474.577H264.681Z" fill="#8B8B8B"/>
<path d="M225.03 436.066V380.05H143.34C123.889 380.05 107.162 378.299 93.1581 374.798C79.1539 371.297 68.4563 365.268 61.0652 356.71C53.2852 347.763 49.3951 335.12 49.3951 318.782C49.3951 303.611 53.0907 291.552 60.4818 282.604C67.8728 273.657 78.5704 267.433 92.5746 263.932C106.579 260.042 123.111 258.097 142.173 258.097H225.03V202.081H163.179C143.729 202.081 127.196 200.525 113.581 197.413C99.5766 193.912 89.0735 187.882 82.0715 179.324C74.6804 170.766 70.9849 158.707 70.9849 143.147C70.9849 127.586 74.4859 115.527 81.4879 106.969C88.101 98.4112 98.4096 92.3816 112.414 88.8806C126.418 85.3795 143.729 83.629 164.346 83.629H256.54V27.6125H164.346C134.781 27.6125 107.94 31.1135 83.822 38.1156C59.3147 44.7287 39.8646 56.5933 25.4714 73.7094C11.0783 90.4366 3.88171 113.971 3.88171 144.314C3.88171 157.929 7.18826 171.544 13.8013 185.159C20.0254 198.774 29.3614 210.25 41.8096 219.586C54.2577 228.922 70.2068 233.979 89.657 234.757V220.169C70.5958 220.558 53.0907 224.837 37.1415 233.006C20.8034 241.176 7.77174 252.651 -1.95337 267.433C-12.0675 281.826 -17.1245 298.943 -17.1245 318.782C-17.1245 349.124 -9.92793 372.853 4.46521 389.969C18.8584 407.086 38.3085 419.145 62.8158 426.147C86.934 432.76 113.775 436.066 143.34 436.066H225.03ZM288.632 397.555V27.6125H225.03V397.555H288.632Z" fill="#8B8B8B"/>
<path d="M328.283 436.066V380.05H409.974C429.424 380.05 446.151 378.299 460.155 374.798C474.159 371.297 484.857 365.268 492.248 356.71C500.028 347.763 503.918 335.12 503.918 318.782C503.918 303.611 500.223 291.552 492.831 282.604C485.44 273.657 474.743 267.433 460.739 263.932C446.735 260.042 430.202 258.097 411.141 258.097H328.283V202.081H390.135C409.585 202.081 426.117 200.525 439.732 197.413C453.737 193.912 464.24 187.882 471.242 179.324C478.633 170.766 482.328 158.707 482.328 143.147C482.328 127.586 478.827 115.527 471.825 106.969C465.212 98.4112 454.904 92.3816 440.899 88.8806C426.895 85.3795 409.585 83.629 388.967 83.629H296.774V27.6125H388.967C418.532 27.6125 445.373 31.1135 469.491 38.1156C493.998 44.7287 513.449 56.5933 527.842 73.7094C542.235 90.4366 549.432 113.971 549.432 144.314C549.432 157.929 546.125 171.544 539.512 185.159C533.288 198.774 523.952 210.25 511.504 219.586C499.056 228.922 483.106 233.979 463.656 234.757V220.169C482.717 220.558 500.223 224.837 516.172 233.006C532.51 241.176 545.541 252.651 555.267 267.433C565.381 281.826 570.438 298.943 570.438 318.782C570.438 349.124 563.241 372.853 548.848 389.969C534.455 407.086 515.005 419.145 490.497 426.147C466.379 432.76 439.538 436.066 409.974 436.066H328.283ZM264.681 397.555V27.6125H328.283V397.555H264.681Z" fill="#8B8B8B"/>
</g>
<mask id="mask2_257_816" style="mask-type:alpha" maskUnits="userSpaceOnUse" x="-1" y="164" width="225" height="217">
<rect width="223.47" height="215.5" transform="matrix(-1 0 0 1 223.297 164.648)" fill="#8B8B8B"/>
</mask>
<g mask="url(#mask2_257_816)">
<path d="M60.827 273.282V217.266H-20.8638C-40.314 217.266 -57.0412 215.515 -71.0453 212.014C-85.0495 208.513 -95.747 202.483 -103.138 193.925C-110.918 184.978 -114.808 172.336 -114.808 155.997C-114.808 140.826 -111.113 128.767 -103.722 119.82C-96.3305 110.873 -85.6329 104.649 -71.6288 101.148C-57.6247 97.2579 -41.092 95.3129 -22.0308 95.3129H60.827V39.2963H-1.02465C-20.4748 39.2963 -37.0075 37.7403 -50.6226 34.6283C-64.6267 31.1272 -75.1298 25.0977 -82.1319 16.5396C-89.523 7.98152 -93.2185 -4.0776 -93.2185 -19.6378C-93.2185 -35.1979 -89.7175 -47.257 -82.7154 -55.8151C-76.1024 -64.3732 -65.7937 -70.4027 -51.7896 -73.9038C-37.7855 -77.4048 -20.4748 -79.1553 0.142365 -79.1553H92.3363V-135.172H0.142365C-29.4219 -135.172 -56.2632 -131.671 -80.3814 -124.669C-104.889 -118.056 -124.339 -106.191 -138.732 -89.0749C-153.125 -72.3478 -160.322 -48.813 -160.322 -18.4707C-160.322 -4.85561 -157.015 8.75952 -150.402 22.3747C-144.178 35.9898 -134.842 47.4654 -122.394 56.8015C-109.946 66.1376 -93.9965 71.1946 -74.5463 71.9726V57.385C-93.6075 57.774 -111.113 62.053 -127.062 70.2221C-143.4 78.3912 -156.432 89.8668 -166.157 104.649C-176.271 119.042 -181.328 136.158 -181.328 155.997C-181.328 186.34 -174.131 210.069 -159.738 227.185C-145.345 244.301 -125.895 256.36 -101.388 263.362C-77.2694 269.976 -50.4281 273.282 -20.8638 273.282H60.827ZM124.429 234.771V-135.172H60.827V234.771H124.429Z" fill="#8B8B8B"/>
<path d="M164.08 273.282V217.266H245.77C265.221 217.266 281.948 215.515 295.952 212.014C309.956 208.513 320.654 202.483 328.045 193.925C335.825 184.978 339.715 172.336 339.715 155.997C339.715 140.826 336.019 128.767 328.628 119.82C321.237 110.873 310.539 104.649 296.535 101.148C282.531 97.2579 265.999 95.3129 246.937 95.3129H164.08V39.2963H225.931C245.381 39.2963 261.914 37.7403 275.529 34.6283C289.533 31.1272 300.036 25.0977 307.038 16.5396C314.429 7.98152 318.125 -4.0776 318.125 -19.6378C318.125 -35.1979 314.624 -47.257 307.622 -55.8151C301.009 -64.3732 290.7 -70.4027 276.696 -73.9038C262.692 -77.4048 245.381 -79.1553 224.764 -79.1553H132.57V-135.172H224.764C254.328 -135.172 281.17 -131.671 305.288 -124.669C329.795 -118.056 349.245 -106.191 363.638 -89.0749C378.032 -72.3478 385.228 -48.813 385.228 -18.4707C385.228 -4.85561 381.922 8.75952 375.309 22.3747C369.085 35.9898 359.748 47.4654 347.3 56.8015C334.852 66.1376 318.903 71.1946 299.453 71.9726V57.385C318.514 57.774 336.019 62.053 351.968 70.2221C368.306 78.3912 381.338 89.8668 391.063 104.649C401.177 119.042 406.234 136.158 406.234 155.997C406.234 186.34 399.038 210.069 384.645 227.185C370.252 244.301 350.801 256.36 326.294 263.362C302.176 269.976 275.335 273.282 245.77 273.282H164.08ZM100.477 234.771V-135.172H164.08V234.771H100.477Z" fill="#8B8B8B"/>
<path d="M60.827 273.281V329.298H-20.8638C-40.314 329.298 -57.0412 331.048 -71.0453 334.549C-85.0495 338.05 -95.747 344.08 -103.138 352.638C-110.918 361.585 -114.808 374.228 -114.808 390.566C-114.808 405.737 -111.113 417.796 -103.722 426.743C-96.3305 435.69 -85.6329 441.914 -71.6288 445.415C-57.6247 449.305 -41.092 451.25 -22.0308 451.25H60.827V507.267H-1.02465C-20.4748 507.267 -37.0075 508.823 -50.6226 511.935C-64.6267 515.436 -75.1298 521.466 -82.1319 530.024C-89.523 538.582 -93.2185 550.641 -93.2185 566.201C-93.2185 581.761 -89.7175 593.82 -82.7154 602.378C-76.1024 610.937 -65.7937 616.966 -51.7896 620.467C-37.7855 623.968 -20.4748 625.719 0.142365 625.719H92.3363V681.735H0.142365C-29.4219 681.735 -56.2632 678.234 -80.3814 671.232C-104.889 664.619 -124.339 652.754 -138.732 635.638C-153.125 618.911 -160.322 595.376 -160.322 565.034C-160.322 551.419 -157.015 537.804 -150.402 524.189C-144.178 510.574 -134.842 499.098 -122.394 489.762C-109.946 480.426 -93.9965 475.369 -74.5463 474.591V489.178C-93.6075 488.789 -111.113 484.51 -127.062 476.341C-143.4 468.172 -156.432 456.697 -166.157 441.914C-176.271 427.521 -181.328 410.405 -181.328 390.566C-181.328 360.224 -174.131 336.494 -159.738 319.378C-145.345 302.262 -125.895 290.203 -101.388 283.201C-77.2694 276.588 -50.4281 273.281 -20.8638 273.281H60.827ZM124.429 311.793V681.735H60.827V311.793H124.429Z" fill="#8B8B8B"/>
<path d="M164.08 273.281V329.298H245.77C265.221 329.298 281.948 331.048 295.952 334.549C309.956 338.05 320.654 344.08 328.045 352.638C335.825 361.585 339.715 374.228 339.715 390.566C339.715 405.737 336.019 417.796 328.628 426.743C321.237 435.69 310.539 441.914 296.535 445.415C282.531 449.305 265.999 451.25 246.937 451.25H164.08V507.267H225.931C245.381 507.267 261.914 508.823 275.529 511.935C289.533 515.436 300.036 521.466 307.038 530.024C314.429 538.582 318.125 550.641 318.125 566.201C318.125 581.761 314.624 593.82 307.622 602.378C301.009 610.937 290.7 616.966 276.696 620.467C262.692 623.968 245.381 625.719 224.764 625.719H132.57V681.735H224.764C254.328 681.735 281.17 678.234 305.288 671.232C329.795 664.619 349.245 652.754 363.638 635.638C378.032 618.911 385.228 595.376 385.228 565.034C385.228 551.419 381.922 537.804 375.309 524.189C369.085 510.574 359.748 499.098 347.3 489.762C334.852 480.426 318.903 475.369 299.453 474.591V489.178C318.514 488.789 336.019 484.51 351.968 476.341C368.306 468.172 381.338 456.697 391.063 441.914C401.177 427.521 406.234 410.405 406.234 390.566C406.234 360.224 399.038 336.494 384.645 319.378C370.252 302.262 350.801 290.203 326.294 283.201C302.176 276.588 275.335 273.281 245.77 273.281H164.08ZM100.477 311.793V681.735H164.08V311.793H100.477Z" fill="#8B8B8B"/>
</g>
<mask id="mask3_257_816" style="mask-type:alpha" maskUnits="userSpaceOnUse" x="326" y="164" width="224" height="217">
<rect width="223.47" height="215.5" transform="matrix(-1 0 0 1 550 164.648)" fill="#8B8B8B"/>
</mask>
<g mask="url(#mask3_257_816)">
<path d="M387.53 273.282V217.266H305.839C286.389 217.266 269.662 215.515 255.658 212.014C241.654 208.513 230.956 202.483 223.565 193.925C215.785 184.978 211.895 172.336 211.895 155.997C211.895 140.826 215.59 128.767 222.982 119.82C230.373 110.873 241.07 104.649 255.074 101.148C269.078 97.2579 285.611 95.3129 304.672 95.3129H387.53V39.2963H325.678C306.228 39.2963 289.696 37.7403 276.081 34.6283C262.076 31.1272 251.573 25.0977 244.571 16.5396C237.18 7.98152 233.485 -4.0776 233.485 -19.6378C233.485 -35.1979 236.986 -47.257 243.988 -55.8151C250.601 -64.3732 260.909 -70.4027 274.914 -73.9038C288.918 -77.4048 306.228 -79.1553 326.845 -79.1553H419.039V-135.172H326.845C297.281 -135.172 270.44 -131.671 246.322 -124.669C221.815 -118.056 202.364 -106.191 187.971 -89.0749C173.578 -72.3478 166.381 -48.813 166.381 -18.4707C166.381 -4.85561 169.688 8.75952 176.301 22.3747C182.525 35.9898 191.861 47.4654 204.309 56.8015C216.757 66.1376 232.707 71.1946 252.157 71.9726V57.385C233.096 57.774 215.59 62.053 199.641 70.2221C183.303 78.3912 170.272 89.8668 160.546 104.649C150.432 119.042 145.375 136.158 145.375 155.997C145.375 186.34 152.572 210.069 166.965 227.185C181.358 244.301 200.808 256.36 225.316 263.362C249.434 269.976 276.275 273.282 305.839 273.282H387.53ZM451.132 234.771V-135.172H387.53V234.771H451.132Z" fill="#8B8B8B"/>
<path d="M490.783 273.282V217.266H572.473C591.924 217.266 608.651 215.515 622.655 212.014C636.659 208.513 647.357 202.483 654.748 193.925C662.528 184.978 666.418 172.336 666.418 155.997C666.418 140.826 662.722 128.767 655.331 119.82C647.94 110.873 637.243 104.649 623.238 101.148C609.234 97.2579 592.702 95.3129 573.64 95.3129H490.783V39.2963H552.634C572.084 39.2963 588.617 37.7403 602.232 34.6283C616.236 31.1272 626.739 25.0977 633.742 16.5396C641.133 7.98152 644.828 -4.0776 644.828 -19.6378C644.828 -35.1979 641.327 -47.257 634.325 -55.8151C627.712 -64.3732 617.403 -70.4027 603.399 -73.9038C589.395 -77.4048 572.084 -79.1553 551.467 -79.1553H459.273V-135.172H551.467C581.032 -135.172 607.873 -131.671 631.991 -124.669C656.498 -118.056 675.948 -106.191 690.342 -89.0749C704.735 -72.3478 711.931 -48.813 711.931 -18.4707C711.931 -4.85561 708.625 8.75952 702.012 22.3747C695.788 35.9898 686.452 47.4654 674.003 56.8015C661.555 66.1376 645.606 71.1946 626.156 71.9726V57.385C645.217 57.774 662.722 62.053 678.671 70.2221C695.01 78.3912 708.041 89.8668 717.766 104.649C727.88 119.042 732.938 136.158 732.938 155.997C732.938 186.34 725.741 210.069 711.348 227.185C696.955 244.301 677.504 256.36 652.997 263.362C628.879 269.976 602.038 273.282 572.473 273.282H490.783ZM427.181 234.771V-135.172H490.783V234.771H427.181Z" fill="#8B8B8B"/>
<path d="M387.53 273.281V329.298H305.839C286.389 329.298 269.662 331.048 255.658 334.549C241.654 338.05 230.956 344.08 223.565 352.638C215.785 361.585 211.895 374.228 211.895 390.566C211.895 405.737 215.59 417.796 222.982 426.743C230.373 435.69 241.07 441.914 255.074 445.415C269.078 449.305 285.611 451.25 304.672 451.25H387.53V507.267H325.678C306.228 507.267 289.696 508.823 276.081 511.935C262.076 515.436 251.573 521.466 244.571 530.024C237.18 538.582 233.485 550.641 233.485 566.201C233.485 581.761 236.986 593.82 243.988 602.378C250.601 610.937 260.909 616.966 274.914 620.467C288.918 623.968 306.228 625.719 326.845 625.719H419.039V681.735H326.845C297.281 681.735 270.44 678.234 246.322 671.232C221.815 664.619 202.364 652.754 187.971 635.638C173.578 618.911 166.381 595.376 166.381 565.034C166.381 551.419 169.688 537.804 176.301 524.189C182.525 510.574 191.861 499.098 204.309 489.762C216.757 480.426 232.707 475.369 252.157 474.591V489.178C233.096 488.789 215.59 484.51 199.641 476.341C183.303 468.172 170.272 456.697 160.546 441.914C150.432 427.521 145.375 410.405 145.375 390.566C145.375 360.224 152.572 336.494 166.965 319.378C181.358 302.262 200.808 290.203 225.316 283.201C249.434 276.588 276.275 273.281 305.839 273.281H387.53ZM451.132 311.793V681.735H387.53V311.793H451.132Z" fill="#8B8B8B"/>
<path d="M490.783 273.281V329.298H572.473C591.924 329.298 608.651 331.048 622.655 334.549C636.659 338.05 647.357 344.08 654.748 352.638C662.528 361.585 666.418 374.228 666.418 390.566C666.418 405.737 662.722 417.796 655.331 426.743C647.94 435.69 637.243 441.914 623.238 445.415C609.234 449.305 592.702 451.25 573.64 451.25H490.783V507.267H552.634C572.084 507.267 588.617 508.823 602.232 511.935C616.236 515.436 626.739 521.466 633.742 530.024C641.133 538.582 644.828 550.641 644.828 566.201C644.828 581.761 641.327 593.82 634.325 602.378C627.712 610.937 617.403 616.966 603.399 620.467C589.395 623.968 572.084 625.719 551.467 625.719H459.273V681.735H551.467C581.032 681.735 607.873 678.234 631.991 671.232C656.498 664.619 675.948 652.754 690.342 635.638C704.735 618.911 711.931 595.376 711.931 565.034C711.931 551.419 708.625 537.804 702.012 524.189C695.788 510.574 686.452 499.098 674.003 489.762C661.555 480.426 645.606 475.369 626.156 474.591V489.178C645.217 488.789 662.722 484.51 678.671 476.341C695.01 468.172 708.041 456.697 717.766 441.914C727.88 427.521 732.938 410.405 732.938 390.566C732.938 360.224 725.741 336.494 711.348 319.378C696.955 302.262 677.504 290.203 652.997 283.201C628.879 276.588 602.038 273.281 572.473 273.281H490.783ZM427.181 311.793V681.735H490.783V311.793H427.181Z" fill="#8B8B8B"/>
</g>
</g>
<defs>
<clipPath id="clip0_257_816">
<rect width="550" height="459" fill="white" transform="matrix(-1 0 0 1 550 0)"/>
</clipPath>
</defs>
</svg>
