<svg width="21" height="17" viewBox="0 0 21 17" fill="none" xmlns="http://www.w3.org/2000/svg">
<path d="M0 7.292C4.10949 7.32678 8.2192 7.33302 12.3289 7.31061C14.2399 7.31696 16.382 7.27794 18.2609 7.38609L18.259 9.45764C12.1822 9.53235 6.1048 9.54161 0.0277682 9.48553L0 7.292Z" fill="#1134D1"/>
<path d="M20.1407 8.47656C20.3061 8.7252 20.2472 10.4931 20.2445 10.9214C17.0989 12.7713 13.4354 15.0236 10.2157 16.6669C10.0099 16.4472 10.1068 14.6633 10.1138 14.2295C13.1345 12.6509 17.2751 10.2908 20.1407 8.47656Z" fill="#1134D1"/>
<path d="M10.0752 3.54604e-06C11.1109 0.507215 12.6558 1.468 13.6854 2.06453L20.281 5.87725L20.2322 8.3124C19.8207 8.15218 19.2593 7.75814 18.8603 7.52042C15.9513 5.78783 12.9667 4.14444 10.0783 2.38097L10.0752 3.54604e-06Z" fill="#1134D1"/>
</svg>
