<svg width="145" height="65" viewBox="0 0 145 65" fill="none" xmlns="http://www.w3.org/2000/svg">
<path d="M22.8554 1.41191V48.8876C22.8554 53.6528 21.5317 57.2414 18.8844 59.6535C16.237 62.0067 12.266 63.1833 6.97134 63.1833H0V53.4763H6.8831C8.4715 53.4763 9.6481 53.0939 10.4129 52.3292C11.1777 51.5644 11.5601 50.3289 11.5601 48.6229V1.41191H22.8554Z" fill="white"/>
<path d="M46.6133 43.5047C46.8486 45.7402 47.584 47.6816 48.8194 49.3288C50.0548 50.9172 51.6726 52.1527 53.6728 53.0351C55.7319 53.8587 58.0263 54.2705 60.5559 54.2705C64.1446 54.2705 67.0861 53.6234 69.3804 52.3292C71.6748 51.0349 72.822 49.0935 72.822 46.505C72.822 44.7401 72.1454 43.3576 70.7923 42.3575C69.4393 41.2986 67.6449 40.4749 65.4094 39.8866C63.1739 39.2395 60.7324 38.6218 58.0851 38.0335C55.4377 37.4452 52.761 36.7686 50.0548 36.0038C47.4075 35.1802 44.966 34.0919 42.7305 32.7388C40.495 31.3269 38.7006 29.4737 37.3476 27.1794C35.9945 24.8262 35.3179 21.8259 35.3179 18.1784C35.3179 14.7074 36.3474 11.6189 38.4065 8.9127C40.4655 6.14769 43.3188 3.97101 46.9662 2.38261C50.6725 0.794199 54.9083 0 59.6735 0C64.2034 0 68.2627 0.91185 71.8513 2.73557C75.4987 4.5593 78.352 7.05956 80.411 10.2364C82.5289 13.3544 83.5878 16.943 83.5878 21.0022H71.763C71.5277 17.6489 70.3805 15.031 68.3215 13.1485C66.3213 11.2659 63.2915 10.3246 59.2323 10.3246C55.2907 10.3246 52.2609 11.06 50.1431 12.5307C48.084 14.0015 47.0545 15.884 47.0545 18.1784C47.0545 20.1198 47.731 21.6494 49.0841 22.7671C50.4372 23.8849 52.2315 24.7674 54.4671 25.4145C56.7026 26.0616 59.144 26.6499 61.7914 27.1794C64.4976 27.7088 67.1743 28.3854 69.8217 29.209C72.469 29.9738 74.9104 31.0327 77.146 32.3858C79.3815 33.6801 81.1758 35.4744 82.5289 37.7688C83.882 40.0043 84.5585 42.9164 84.5585 46.505C84.5585 52.2115 82.4113 56.6531 78.1167 59.83C73.8221 63.0068 67.792 64.5952 60.0265 64.5952C55.2613 64.5952 50.9961 63.6833 47.231 61.8596C43.4659 60.0359 40.4655 57.5356 38.23 54.3588C35.9945 51.182 34.7885 47.5639 34.612 43.5047H46.6133Z" fill="white"/>
<path d="M109.002 1.92663H119.68L116.833 11.5093L108.3 40.2249L105.363 50.1083L101.325 63.698H89.6767L109.002 1.92663Z" fill="white"/>
<path d="M132.564 63.698H144.124L139.833 50.1083H128.467L132.564 63.698Z" fill="white"/>
<path d="M108.3 40.2249L105.363 50.1083H128.467L125.488 40.2249H108.3Z" fill="white"/>
<path d="M124.622 1.92663H119.68L116.833 11.5093L125.488 40.2249H136.77L124.622 1.92663Z" fill="white"/>
</svg>
