<svg width="18" height="18" viewBox="0 0 18 18" fill="none" xmlns="http://www.w3.org/2000/svg">
<g clip-path="url(#clip0_347_409)">
<path d="M3.4043 12.8693C5.33855 10.9675 7.2596 9.05232 9.16726 7.12373C10.0622 6.23477 11.0437 5.2168 11.9711 4.39034L12.9371 5.35808C10.1357 8.22918 7.30356 11.07 4.44105 13.8802L3.4043 12.8693Z" fill="#1134D1"/>
<path d="M13.3574 4.02091C13.5506 4.05978 14.3483 4.91241 14.5469 5.11355C13.9422 7.44511 13.2836 10.2062 12.5478 12.4759C12.3492 12.4694 11.5619 11.5916 11.3626 11.3859C12.0357 9.23922 12.8667 6.20513 13.3574 4.02091Z" fill="#1134D1"/>
<path d="M4.70312 4.76355C5.42324 4.5169 6.59274 4.24426 7.35168 4.04216L12.2096 2.74329L13.3234 3.90266C13.0565 4.01992 12.6106 4.09804 12.3134 4.17331C10.1471 4.72237 7.98702 5.34835 5.81586 5.87337L4.70312 4.76355Z" fill="#1134D1"/>
</g>
<defs>
<clipPath id="clip0_347_409">
<rect width="17.2442" height="17.2442" fill="white"/>
</clipPath>
</defs>
</svg>
