<svg width="60" height="60" viewBox="0 0 60 60" fill="none" xmlns="http://www.w3.org/2000/svg">
<rect width="60" height="60" fill="#1134D1"/>
<path d="M20 29.292C24.1095 29.3268 28.2192 29.333 32.3289 29.3106C34.2399 29.317 36.382 29.2779 38.2609 29.3861L38.259 31.4576C32.1822 31.5323 26.1048 31.5416 20.0278 31.4855L20 29.292Z" fill="#F7F7F7"/>
<path d="M40.1407 30.4766C40.3061 30.7252 40.2472 32.4931 40.2445 32.9214C37.0989 34.7713 33.4354 37.0236 30.2157 38.6669C30.0099 38.4472 30.1068 36.6633 30.1138 36.2295C33.1345 34.6509 37.2751 32.2908 40.1407 30.4766Z" fill="#F7F7F7"/>
<path d="M30.0752 22C31.1109 22.5072 32.6558 23.468 33.6854 24.0645L40.281 27.8772L40.2322 30.3124C39.8207 30.1522 39.2593 29.7581 38.8603 29.5204C35.9513 27.7878 32.9667 26.1444 30.0783 24.381L30.0752 22Z" fill="#F7F7F7"/>
</svg>
