<svg width="50" height="50" viewBox="0 0 50 50" fill="none" xmlns="http://www.w3.org/2000/svg">
<rect x="0.25" y="0.25" width="49.5" height="49.5" stroke="#F7F7F7" stroke-opacity="0.25" stroke-width="0.5"/>
<path d="M20.9381 20.4451C20.9379 20.8282 20.7829 21.1955 20.5073 21.4662C20.2317 21.7369 19.8579 21.8889 19.4683 21.8887C19.0787 21.8885 18.7051 21.7362 18.4298 21.4652C18.1544 21.1942 17.9998 20.8267 18 20.4436C18.0002 20.0606 18.1552 19.6933 18.4308 19.4225C18.7064 19.1518 19.0802 18.9998 19.4698 19C19.8594 19.0002 20.233 19.1525 20.5083 19.4236C20.7837 19.6946 20.9383 20.062 20.9381 20.4451ZM20.9822 22.9583H18.0441V32H20.9822V22.9583ZM25.6243 22.9583H22.7009V32H25.595V27.2553C25.595 24.6121 29.0986 24.3665 29.0986 27.2553V32H32V26.2731C32 21.8172 26.8143 21.9833 25.595 24.1715L25.6243 22.9583Z" fill="#F7F7F7"/>
</svg>
