<svg width="50" height="50" viewBox="0 0 50 50" fill="none" xmlns="http://www.w3.org/2000/svg">
<rect x="0.25" y="0.25" width="49.5" height="49.5" stroke="#F7F7F7" stroke-opacity="0.25" stroke-width="0.5"/>
<path d="M23.4 27.8571L27.552 25.5L23.4 23.1429V27.8571ZM32.648 21.705C32.752 22.0743 32.824 22.5693 32.872 23.1979C32.928 23.8264 32.952 24.3686 32.952 24.84L33 25.5C33 27.2207 32.872 28.4857 32.648 29.295C32.448 30.0021 31.984 30.4579 31.264 30.6543C30.888 30.7564 30.2 30.8271 29.144 30.8743C28.104 30.9293 27.152 30.9529 26.272 30.9529L25 31C21.648 31 19.56 30.8743 18.736 30.6543C18.016 30.4579 17.552 30.0021 17.352 29.295C17.248 28.9257 17.176 28.4307 17.128 27.8021C17.072 27.1736 17.048 26.6314 17.048 26.16L17 25.5C17 23.7793 17.128 22.5143 17.352 21.705C17.552 20.9979 18.016 20.5421 18.736 20.3457C19.112 20.2436 19.8 20.1729 20.856 20.1257C21.896 20.0707 22.848 20.0471 23.728 20.0471L25 20C28.352 20 30.44 20.1257 31.264 20.3457C31.984 20.5421 32.448 20.9979 32.648 21.705Z" fill="#F7F7F7"/>
</svg>
