<svg width="11" height="16" viewBox="0 0 11 16" fill="none" xmlns="http://www.w3.org/2000/svg">
<path d="M6.31104 4.80825e-07C6.29064 2.47547 6.28697 4.95108 6.30012 7.42668C6.29639 8.57784 6.31928 9.86816 6.25585 11L5.04102 10.9988C4.99721 7.33828 4.99178 3.67741 5.02467 0.0167272L6.31104 4.80825e-07Z" fill="#F7F7F7"/>
<path d="M0 14.0084C2.47548 14.0288 4.95109 14.0325 7.4267 14.0193C8.57786 14.0231 9.86819 14.0002 11 14.0636L10.9989 15.2784C7.3383 15.3222 3.67741 15.3277 0.0167261 15.2948L0 14.0084Z" fill="#F7F7F7"/>
<path d="M5.61817 12.1324C5.47235 12.2321 4.43557 12.1966 4.18442 12.195C3.09958 10.3001 1.77875 8.09334 0.815072 6.15381C0.943885 6.02988 1.99002 6.08825 2.24444 6.09242C3.17019 7.91204 4.55425 10.4063 5.61817 12.1324Z" fill="#F7F7F7"/>
<path d="M10.5875 6.06879C10.2901 6.69266 9.72664 7.6233 9.37681 8.24347L7.1409 12.2166L5.71284 12.1871C5.8068 11.9393 6.03788 11.6011 6.17728 11.3608C7.19334 9.60843 8.15708 7.81056 9.19124 6.07067L10.5875 6.06879Z" fill="#F7F7F7"/>
</svg>
