<svg width="13" height="16" viewBox="0 0 13 16" fill="none" xmlns="http://www.w3.org/2000/svg">
<path d="M7.31168 5.68241e-07C7.28454 3.20539 7.27967 6.41097 7.29716 9.61653C7.2922 11.1071 7.32264 12.7779 7.23828 14.2435L5.62233 14.242C5.56405 9.50207 5.55683 4.76174 5.60057 0.0216594L7.31168 5.68241e-07Z" fill="#1134D1"/>
<path d="M6.38901 15.7099C6.19505 15.8389 4.81594 15.793 4.48186 15.7909C3.03882 13.3373 1.28188 10.4798 8.43717e-06 7.96841C0.171353 7.80794 1.5629 7.88352 1.90133 7.88891C3.13276 10.2451 4.97381 13.4747 6.38901 15.7099Z" fill="#1134D1"/>
<path d="M13 7.8584C12.6043 8.66623 11.8549 9.87128 11.3895 10.6743L8.41535 15.8189L6.51577 15.7808C6.64075 15.4599 6.94813 15.022 7.13357 14.7108C8.4851 12.4417 9.76706 10.1138 11.1427 7.86084L13 7.8584Z" fill="#1134D1"/>
</svg>
