<svg width="60" height="60" viewBox="0 0 60 60" fill="none" xmlns="http://www.w3.org/2000/svg">
<rect x="0.75" y="0.75" width="58.5" height="58.5" stroke="#1134D1" stroke-width="1.5"/>
<path d="M19.7191 28.9585C23.8285 28.9933 27.9383 28.9995 32.048 28.9771C33.959 28.9835 36.101 28.9444 37.9799 29.0526L37.978 31.1241C31.9012 31.1988 25.8239 31.2081 19.7468 31.152L19.7191 28.9585Z" fill="#1134D1"/>
<path d="M39.8597 30.1431C40.0251 30.3917 39.9662 32.1596 39.9635 32.5879C36.8179 34.4378 33.1544 36.6901 29.9347 38.3334C29.7289 38.1137 29.8258 36.3298 29.8327 35.896C32.8535 34.3174 36.9941 31.9573 39.8597 30.1431Z" fill="#1134D1"/>
<path d="M29.794 21.6665C30.8297 22.1737 32.3747 23.1345 33.4042 23.731L39.9999 27.5438L39.951 29.9789C39.5396 29.8187 38.9781 29.4246 38.5791 29.1869C35.6701 27.4543 32.6855 25.8109 29.7972 24.0475L29.794 21.6665Z" fill="#1134D1"/>
</svg>
