<svg width="827" height="825" viewBox="0 0 827 825" fill="none" xmlns="http://www.w3.org/2000/svg">
<g opacity="0.06">
<path d="M362.313 417.133L364.759 419.217C370.876 431.224 368.928 497.328 368.928 515.496C254.706 575.438 119.552 656.357 7.86688 723.276C-3.73202 710.001 0.843604 644.441 1.11545 621.923C115.655 565.062 247.774 480.745 362.313 417.133Z" fill="white"/>
<path d="M820.934 100.353C828.138 112.904 825.284 178.509 825.103 197.312L465.491 409.713C457.653 389.234 461.64 332.962 462.41 307.907C573.823 238.858 706.169 166.548 820.934 100.353Z" fill="white"/>
<path d="M0.976114 94.7386C85.5212 139.457 176.5 203.023 262.087 249.645C294.12 267.133 334.988 294.771 368.742 306.098L368.289 413.069C248.721 337.587 123.852 269.037 2.92406 195.004C-1.15368 171.852 0.749573 120.564 0.976114 94.7386Z" fill="white"/>
<path d="M462.348 415.741C582.732 479.761 705.471 561.088 825.855 622.661C826.444 657.185 826.263 691.755 825.357 726.279C719.834 672.227 564.427 561.178 462.348 516.505C461.985 483.068 462.348 449.178 462.348 415.741Z" fill="white"/>
<path d="M370.122 0L461.146 0.0907035C459.379 101.262 458.7 202.434 459.108 303.651C436.816 303.832 388.653 303.153 368.763 306.098C371.21 204.201 368.084 101.579 370.122 0Z" fill="white"/>
<path d="M372.267 516.954L459.712 516.819L458.76 825L371.859 824.23C371.27 721.79 371.406 619.394 372.267 516.954Z" fill="white"/>
</g>
</svg>
