<svg width="21" height="17" viewBox="0 0 21 17" fill="none" xmlns="http://www.w3.org/2000/svg">
<path d="M20.2812 9.375C16.1718 9.34021 12.062 9.33397 7.95234 9.35638C6.04133 9.35003 3.89927 9.38905 2.02038 9.2809L2.02227 7.20935C8.09908 7.13464 14.1764 7.12539 20.2535 7.18147L20.2812 9.375Z" fill="#1134D1"/>
<path d="M0.140542 8.19043C-0.0248232 7.94179 0.0340493 6.17385 0.0367254 5.74558C3.18234 3.89569 6.84581 1.6434 10.0656 0.000114498C10.2713 0.219768 10.1744 2.00365 10.1675 2.4375C7.14676 4.01611 3.00617 6.37622 0.140542 8.19043Z" fill="#1134D1"/>
<path d="M10.2061 16.667C9.17038 16.1598 7.62544 15.199 6.59589 14.6025L0.00024205 10.7897L0.049081 8.35459C0.460543 8.51481 1.02198 8.90885 1.42095 9.14657C4.32995 10.8792 7.31456 12.5226 10.2029 14.286L10.2061 16.667Z" fill="#1134D1"/>
</svg>
