<svg width="78" height="35" viewBox="0 0 78 35" fill="none" xmlns="http://www.w3.org/2000/svg">
<path d="M12.2407 0.756177V26.1827C12.2407 28.7348 11.5317 30.6567 10.1139 31.9486C8.69606 33.2089 6.56931 33.839 3.73364 33.839H0V28.6403H3.68637C4.53708 28.6403 5.16723 28.4355 5.57682 28.0259C5.98642 27.6163 6.19122 26.9546 6.19122 26.0409V0.756177H12.2407Z" fill="#0A0A0A"/>
<path d="M24.9646 23.2998C25.0907 24.497 25.4845 25.5368 26.1462 26.419C26.8078 27.2697 27.6743 27.9314 28.7455 28.404C29.8483 28.8451 31.0771 29.0656 32.4319 29.0656C34.3539 29.0656 35.9292 28.719 37.158 28.0259C38.3868 27.3327 39.0012 26.293 39.0012 24.9066C39.0012 23.9614 38.6389 23.221 37.9142 22.6854C37.1895 22.1182 36.2285 21.6771 35.0313 21.362C33.834 21.0155 32.5264 20.6846 31.1086 20.3696C29.6907 20.0545 28.2572 19.6921 26.8078 19.2826C25.39 18.8414 24.0824 18.2586 22.8851 17.5339C21.6878 16.7777 20.7269 15.7852 20.0022 14.5564C19.2775 13.2961 18.9152 11.6893 18.9152 9.73579C18.9152 7.87686 19.4666 6.22271 20.5693 4.77337C21.6721 3.29251 23.2002 2.12675 25.1537 1.27605C27.1386 0.425348 29.4072 0 31.9593 0C34.3854 0 36.5594 0.488359 38.4813 1.46509C40.4348 2.44182 41.9629 3.78088 43.0657 5.48229C44.1999 7.15218 44.7671 9.07413 44.7671 11.2481H38.4341C38.308 9.45222 37.6936 8.05014 36.5909 7.04191C35.5196 6.03367 33.897 5.52955 31.723 5.52955C29.612 5.52955 27.9893 5.92339 26.8551 6.71108C25.7523 7.49876 25.2009 8.507 25.2009 9.73579C25.2009 10.7755 25.5633 11.5947 26.2879 12.1934C27.0126 12.792 27.9736 13.2646 29.1709 13.6112C30.3682 13.9578 31.6757 14.2729 33.0936 14.5564C34.5429 14.84 35.9765 15.2023 37.3943 15.6434C38.8122 16.053 40.1197 16.6202 41.317 17.3448C42.5143 18.038 43.4753 18.999 44.1999 20.2278C44.9246 21.4251 45.2869 22.9847 45.2869 24.9066C45.2869 27.9629 44.1369 30.3417 41.8369 32.0431C39.5368 33.7445 36.3073 34.5952 32.1483 34.5952C29.5962 34.5952 27.3119 34.1068 25.2955 33.1301C23.279 32.1534 21.6721 30.8143 20.4748 29.1129C19.2775 27.4115 18.6316 25.4738 18.5371 23.2998H24.9646Z" fill="#0A0A0A"/>
<path d="M58.3783 1.03184H64.0969L62.5719 6.16403L58.0021 21.5432L56.4292 26.8365L54.2666 34.1147H48.0281L58.3783 1.03184Z" fill="#0A0A0A"/>
<path d="M70.997 34.1147H77.1883L74.8904 26.8365H68.8032L70.997 34.1147Z" fill="#0A0A0A"/>
<path d="M58.0021 21.5432L56.4292 26.8365H68.8032L67.2076 21.5432H58.0021Z" fill="#0A0A0A"/>
<path d="M66.7435 1.03184H64.0969L62.5719 6.16403L67.2076 21.5432H73.2498L66.7435 1.03184Z" fill="#0A0A0A"/>
</svg>
