<svg width="519" height="344" viewBox="0 0 519 344" fill="none" xmlns="http://www.w3.org/2000/svg">
<g clip-path="url(#clip0_257_754)">
<mask id="mask0_257_754" style="mask-type:alpha" maskUnits="userSpaceOnUse" x="-1" y="0" width="521" height="500">
<path d="M-0.275391 0H519.001V499.838H-0.275391V0Z" fill="white"/>
</mask>
<g mask="url(#mask0_257_754)">
<path d="M377.255 251.977V122.051H567.08C612.277 122.051 651.145 117.991 683.687 109.87C716.228 101.75 741.086 87.765 758.261 67.9151C776.339 47.163 785.379 17.8393 785.379 -20.0559C785.379 -55.2443 776.791 -83.2145 759.617 -103.967C742.442 -124.719 717.584 -139.155 685.043 -147.275C652.501 -156.298 614.084 -160.809 569.792 -160.809H377.255V-290.736H520.98C566.176 -290.736 604.593 -294.345 636.231 -301.563C668.772 -309.683 693.178 -323.669 709.449 -343.518C726.623 -363.368 735.211 -391.339 735.211 -427.429C735.211 -463.52 727.075 -491.49 710.805 -511.34C695.438 -531.19 671.484 -545.175 638.942 -553.295C606.401 -561.416 566.176 -565.476 518.268 -565.476H304.037V-695.402H518.268C586.967 -695.402 649.338 -687.282 705.381 -671.041C762.328 -655.703 807.525 -628.183 840.97 -588.484C874.415 -549.686 891.138 -495.099 891.138 -424.722C891.138 -393.143 883.455 -361.564 868.088 -329.984C853.625 -298.405 831.931 -271.788 803.005 -250.134C774.079 -228.479 737.018 -216.75 691.822 -214.945V-248.78C736.114 -247.878 776.791 -237.953 813.852 -219.006C851.817 -200.058 882.099 -173.441 904.697 -139.155C928.199 -105.771 939.95 -66.0715 939.95 -20.0559C939.95 50.3209 923.228 105.359 889.782 145.059C856.337 184.759 811.141 212.729 754.193 228.97C698.15 244.308 635.779 251.977 567.08 251.977H377.255ZM229.463 162.653V-695.402H377.255V162.653H229.463Z" fill="white"/>
<path d="M137.328 251.977V122.051H-52.4972C-97.6935 122.051 -136.562 117.991 -169.104 109.87C-201.645 101.75 -226.503 87.765 -243.678 67.9151C-261.756 47.163 -270.796 17.8393 -270.796 -20.0559C-270.796 -55.2443 -262.208 -83.2145 -245.034 -103.967C-227.859 -124.719 -203.001 -139.155 -170.46 -147.275C-137.918 -156.298 -99.5014 -160.809 -55.209 -160.809H137.328V-290.736H-6.39685C-51.5932 -290.736 -90.0101 -294.345 -121.648 -301.563C-154.189 -309.683 -178.595 -323.669 -194.866 -343.518C-212.04 -363.368 -220.628 -391.339 -220.628 -427.429C-220.628 -463.52 -212.492 -491.49 -196.222 -511.34C-180.855 -531.19 -156.901 -545.175 -124.359 -553.295C-91.818 -561.416 -51.5932 -565.476 -3.68506 -565.476H210.546V-695.402H-3.68506C-72.3835 -695.402 -134.755 -687.282 -190.798 -671.041C-247.745 -655.703 -292.942 -628.183 -326.387 -588.484C-359.832 -549.686 -376.555 -495.099 -376.555 -424.722C-376.555 -393.143 -368.872 -361.564 -353.505 -329.984C-339.042 -298.405 -317.348 -271.788 -288.422 -250.134C-259.496 -228.479 -222.435 -216.75 -177.239 -214.945V-248.78C-221.532 -247.878 -262.208 -237.953 -299.269 -219.006C-337.234 -200.058 -367.516 -173.441 -390.114 -139.155C-413.616 -105.771 -425.367 -66.0715 -425.367 -20.0559C-425.367 50.3209 -408.645 105.359 -375.199 145.059C-341.754 184.759 -296.557 212.729 -239.61 228.97C-183.567 244.308 -121.196 251.977 -52.4972 251.977H137.328ZM285.12 162.653V-695.402H137.328V162.653H285.12Z" fill="white"/>
<path d="M377.255 251.975V381.901H567.08C612.277 381.901 651.145 385.962 683.687 394.082C716.228 402.202 741.086 416.188 758.261 436.037C776.339 456.79 785.379 486.113 785.379 524.008C785.379 559.197 776.791 587.167 759.617 607.919C742.442 628.671 717.584 643.108 685.043 651.228C652.501 660.251 614.084 664.762 569.792 664.762H377.255V794.688H520.98C566.176 794.688 604.593 798.297 636.231 805.516C668.772 813.636 693.178 827.621 709.449 847.471C726.623 867.321 735.211 895.291 735.211 931.382C735.211 967.472 727.075 995.443 710.805 1015.29C695.438 1035.14 671.484 1049.13 638.942 1057.25C606.401 1065.37 566.176 1069.43 518.268 1069.43H304.037V1199.35H518.268C586.967 1199.35 649.338 1191.23 705.381 1174.99C762.328 1159.66 807.525 1132.14 840.97 1092.44C874.415 1053.64 891.138 999.052 891.138 928.675C891.138 897.096 883.455 865.516 868.088 833.937C853.625 802.358 831.931 775.741 803.005 754.086C774.079 732.432 737.018 720.703 691.822 718.898V752.733C736.114 751.831 776.791 741.906 813.852 722.958C851.817 704.011 882.099 677.394 904.697 643.108C928.199 609.724 939.95 570.024 939.95 524.008C939.95 453.632 923.228 398.593 889.782 358.894C856.337 319.194 811.141 291.224 754.193 274.983C698.15 259.644 635.779 251.975 567.08 251.975H377.255ZM229.463 341.299V1199.35H377.255V341.299H229.463Z" fill="white"/>
<path d="M137.328 251.975V381.901H-52.4972C-97.6935 381.901 -136.562 385.962 -169.104 394.082C-201.645 402.202 -226.503 416.188 -243.678 436.037C-261.756 456.79 -270.796 486.113 -270.796 524.008C-270.796 559.197 -262.208 587.167 -245.034 607.919C-227.859 628.671 -203.001 643.108 -170.46 651.228C-137.918 660.251 -99.5014 664.762 -55.209 664.762H137.328V794.688H-6.39685C-51.5932 794.688 -90.0101 798.297 -121.648 805.516C-154.189 813.636 -178.595 827.621 -194.866 847.471C-212.04 867.321 -220.628 895.291 -220.628 931.382C-220.628 967.472 -212.492 995.443 -196.222 1015.29C-180.855 1035.14 -156.901 1049.13 -124.359 1057.25C-91.818 1065.37 -51.5932 1069.43 -3.68506 1069.43H210.546V1199.35H-3.68506C-72.3835 1199.35 -134.755 1191.23 -190.798 1174.99C-247.745 1159.66 -292.942 1132.14 -326.387 1092.44C-359.832 1053.64 -376.555 999.052 -376.555 928.675C-376.555 897.096 -368.872 865.516 -353.505 833.937C-339.042 802.358 -317.348 775.741 -288.422 754.086C-259.496 732.432 -222.435 720.703 -177.239 718.898V752.733C-221.532 751.831 -262.208 741.906 -299.269 722.958C-337.234 704.011 -367.516 677.394 -390.114 643.108C-413.616 609.724 -425.367 570.024 -425.367 524.008C-425.367 453.632 -408.645 398.593 -375.199 358.894C-341.754 319.194 -296.557 291.224 -239.61 274.983C-183.567 259.644 -121.196 251.975 -52.4972 251.975H137.328ZM285.12 341.299V1199.35H137.328V341.299H285.12Z" fill="white"/>
</g>
</g>
<defs>
<clipPath id="clip0_257_754">
<rect width="519" height="344" fill="white"/>
</clipPath>
</defs>
</svg>
