<svg width="67" height="17" viewBox="0 0 67 17" fill="none" xmlns="http://www.w3.org/2000/svg">
<g clip-path="url(#clip0_178_2332)">
<circle cx="2" cy="4.5" r="2" fill="#0A0A0A"/>
<rect y="2.5" width="4" height="4" fill="#0A0A0A"/>
<rect x="8" y="2.5" width="4" height="4" fill="#0A0A0A"/>
<rect x="8" y="10.5" width="4" height="4" fill="#0A0A0A"/>
<rect y="10.5" width="4" height="4" fill="#0A0A0A"/>
<circle cx="2" cy="12.5" r="2" fill="#0A0A0A"/>
<circle cx="10" cy="4.5" r="2" fill="#0A0A0A"/>
<circle cx="10" cy="12.5" r="2" fill="#0A0A0A"/>
</g>
<path d="M21.328 15V3.08H22.768L27.232 9.432H26.496L30.928 3.08H32.368V15H30.784V5.064L31.344 5.24L26.912 11.48H26.784L22.4 5.24L22.896 5.064V15H21.328ZM35.0155 15V3.08H42.7755V4.52H36.5835V8.296H42.4555V9.736H36.5835V13.56H42.7755V15H35.0155ZM44.7186 15V3.08H46.0306L52.8786 12.712L52.2866 12.776V3.08H53.8706V15H52.5586L45.7426 5.304L46.2866 5.24V15H44.7186ZM60.8511 15.192C59.9871 15.192 59.2191 15.0107 58.5471 14.648C57.8858 14.2853 57.3685 13.7893 56.9951 13.16C56.6325 12.52 56.4511 11.7947 56.4511 10.984V3.08H58.0351V10.952C58.0351 11.496 58.1525 11.9813 58.3871 12.408C58.6325 12.824 58.9631 13.1493 59.3791 13.384C59.8058 13.6187 60.2965 13.736 60.8511 13.736C61.4058 13.736 61.8911 13.6187 62.3071 13.384C62.7338 13.1493 63.0645 12.824 63.2991 12.408C63.5445 11.9813 63.6671 11.496 63.6671 10.952V3.08H65.2511V10.984C65.2511 11.7947 65.0645 12.52 64.6911 13.16C64.3285 13.7893 63.8165 14.2853 63.1551 14.648C62.4938 15.0107 61.7258 15.192 60.8511 15.192Z" fill="#0A0A0A"/>
<defs>
<clipPath id="clip0_178_2332">
<rect width="12" height="12" fill="white" transform="translate(0 2.5)"/>
</clipPath>
</defs>
</svg>
