<svg width="50" height="50" viewBox="0 0 50 50" fill="none" xmlns="http://www.w3.org/2000/svg">
<rect x="0.25" y="0.25" width="49.5" height="49.5" stroke="#F7F7F7" stroke-opacity="0.25" stroke-width="0.5"/>
<path d="M32 21.2941C31.4847 21.5206 30.9293 21.6694 30.3537 21.7406C30.9426 21.3976 31.3977 20.8541 31.6119 20.2006C31.0564 20.5241 30.4407 20.7506 29.7916 20.88C29.2629 20.3235 28.5201 20 27.6769 20C26.1042 20 24.8193 21.2424 24.8193 22.7759C24.8193 22.9959 24.8461 23.2094 24.8929 23.41C22.5105 23.2935 20.3891 22.1871 18.9771 20.5112C18.7294 20.9188 18.5889 21.3976 18.5889 21.9024C18.5889 22.8665 19.0908 23.7206 19.8671 24.2059C19.392 24.2059 18.9503 24.0765 18.5621 23.8824V23.9018C18.5621 25.2476 19.5526 26.3735 20.8642 26.6259C20.4432 26.7378 20.001 26.7533 19.5727 26.6712C19.7544 27.2228 20.1104 27.7054 20.5905 28.0513C21.0707 28.3972 21.6509 28.5889 22.2495 28.5994C21.2348 29.3762 19.9769 29.7961 18.6826 29.79C18.4551 29.79 18.2275 29.7771 18 29.7512C19.2715 30.5406 20.7839 31 22.4034 31C27.6769 31 30.5746 26.7682 30.5746 23.0994C30.5746 22.9765 30.5746 22.86 30.5679 22.7371C31.13 22.3488 31.6119 21.8571 32 21.2941Z" fill="#F7F7F7"/>
</svg>
